<mxfile host="app.diagrams.net" modified="2023-08-29T11:44:13.227Z" agent="Mozilla/5.0 (Windows NT 10.0; Win64; x64) AppleWebKit/537.36 (KHTML, like Gecko) Chrome/116.0.0.0 Safari/537.36" version="21.6.9" etag="UyyXTYb_FjiJ70jNOD8E" type="github">
  <diagram name="PÃ¡gina-1" id="p8aRs3btfZS8khrJOuGc">
    <mxGraphModel>
      <root>
        <mxCell id="0" />
        <mxCell id="1" parent="0" />
      </root>
    </mxGraphModel>
  </diagram>
</mxfile>
